<svg width="360" height="112" viewBox="0 0 360 112" xmlns="http://www.w3.org/2000/svg" role="img" aria-label="my-little-pony">

  <defs>
    <radialGradient id="ltbody" cx="42%" cy="32%" r="74%">
      <stop offset="0%" stop-color="#cdd8ff"/>
      <stop offset="68%" stop-color="#97a8ff"/>
      <stop offset="100%" stop-color="#5f71d6"/>
    </radialGradient>
    <linearGradient id="ltmane" x1="0" y1="0" x2="1" y2="1">
      <stop offset="0%" stop-color="#6a8bff"/>
      <stop offset="50%" stop-color="#4ac8ff"/>
      <stop offset="100%" stop-color="#9d6bff"/>
    </linearGradient>
    <linearGradient id="ltbrand" x1="0" y1="0" x2="1" y2="1">
      <stop offset="0%" stop-color="#1f6bff"/>
      <stop offset="100%" stop-color="#0b3db0"/>
    </linearGradient>
  </defs>
  <g transform="translate(8,8)"><path d="M48.0 25.0 L41.8 4.4 L48.0 -6.6 L54.2 4.4 Z" fill="#eaf1ff" stroke="#aebbe8" stroke-width="1.4"/>
  <path d="M19.2 26.3 L12.3 5.8 L32.9 18.1 Z" fill="#97a8ff"/>
  <path d="M76.8 26.3 L83.7 5.8 L63.1 18.1 Z" fill="#97a8ff"/>
  <ellipse cx="48.0" cy="56.5" rx="45.3" ry="42.5" fill="url(#ltbody)"/>
  <ellipse cx="48.0" cy="77.1" rx="26.1" ry="17.8" fill="#ffffff" opacity="0.18"/>
  <ellipse cx="20.6" cy="71.6" rx="8.2" ry="5.5" fill="#ff9bb0" opacity="0.5"/>
  <ellipse cx="75.4" cy="71.6" rx="8.2" ry="5.5" fill="#ff9bb0" opacity="0.5"/>
  <ellipse cx="32.9" cy="55.1" rx="11.0" ry="14.4" fill="#fff"/>
  <circle cx="32.9" cy="57.9" r="6.5" fill="#1a2a52"/>
  <circle cx="29.5" cy="53.1" r="2.3" fill="#fff"/>
  <ellipse cx="63.1" cy="55.1" rx="11.0" ry="14.4" fill="#fff"/>
  <circle cx="63.1" cy="57.9" r="6.5" fill="#1a2a52"/>
  <circle cx="59.7" cy="53.1" r="2.3" fill="#fff"/>
  <path d="M38.4 85.3 Q48.0 93.5 57.6 85.3" stroke="#1a2a52" stroke-width="2.7" fill="none" stroke-linecap="round" opacity="0.62"/>
  <path d="M24.7 18.1 C24.7 -6.6 49.4 -8.0 54.9 9.9 C59.0 -6.6 80.9 -2.5 76.8 19.5 C68.6 9.9 60.3 16.7 55.5 23.6 C49.4 12.6 35.7 12.6 31.5 23.6 C28.8 18.1 26.1 16.7 24.7 18.1 Z" fill="url(#ltmane)"/></g>
  <text x="120" y="52" font-family="Poppins, system-ui, sans-serif" font-weight="600" font-size="30" letter-spacing="-0.5" fill="#1a2a52">my-little-pony</text>
  <text x="121" y="78" font-family="Inter, system-ui, sans-serif" font-weight="500" font-size="14" fill="#5f71d6">editor de textos · open source</text>
</svg>
