<svg width="180" height="180" viewBox="0 0 180 180" xmlns="http://www.w3.org/2000/svg">

  <defs>
    <radialGradient id="f180body" cx="42%" cy="32%" r="74%">
      <stop offset="0%" stop-color="#cdd8ff"/>
      <stop offset="68%" stop-color="#97a8ff"/>
      <stop offset="100%" stop-color="#5f71d6"/>
    </radialGradient>
    <linearGradient id="f180mane" x1="0" y1="0" x2="1" y2="1">
      <stop offset="0%" stop-color="#6a8bff"/>
      <stop offset="50%" stop-color="#4ac8ff"/>
      <stop offset="100%" stop-color="#9d6bff"/>
    </linearGradient>
    <linearGradient id="f180brand" x1="0" y1="0" x2="1" y2="1">
      <stop offset="0%" stop-color="#1f6bff"/>
      <stop offset="100%" stop-color="#0b3db0"/>
    </linearGradient>
  </defs>
  <rect width="180" height="180" rx="39.6" fill="url(#f180brand)"/>
  <g transform="translate(90.0,90.0) scale(0.78) translate(-90.0,-90.0)">
  <path d="M90.0 46.8 L78.4 8.2 L90.0 -12.3 L101.6 8.2 Z" fill="#eaf1ff" stroke="#aebbe8" stroke-width="2.6"/>
  <path d="M36.0 49.4 L23.1 10.8 L61.7 33.9 Z" fill="#97a8ff"/>
  <path d="M144.0 49.4 L156.9 10.8 L118.3 33.9 Z" fill="#97a8ff"/>
  <ellipse cx="90.0" cy="105.9" rx="84.9" ry="79.7" fill="url(#f180body)"/>
  <ellipse cx="90.0" cy="144.5" rx="48.9" ry="33.4" fill="#ffffff" opacity="0.18"/>
  <ellipse cx="38.6" cy="134.2" rx="15.4" ry="10.3" fill="#ff9bb0" opacity="0.5"/>
  <ellipse cx="141.4" cy="134.2" rx="15.4" ry="10.3" fill="#ff9bb0" opacity="0.5"/>
  <ellipse cx="61.7" cy="103.4" rx="20.6" ry="27.0" fill="#fff"/>
  <circle cx="61.7" cy="108.5" r="12.2" fill="#1a2a52"/>
  <circle cx="55.3" cy="99.5" r="4.4" fill="#fff"/>
  <ellipse cx="118.3" cy="103.4" rx="20.6" ry="27.0" fill="#fff"/>
  <circle cx="118.3" cy="108.5" r="12.2" fill="#1a2a52"/>
  <circle cx="111.9" cy="99.5" r="4.4" fill="#fff"/>
  <path d="M72.0 159.9 Q90.0 175.4 108.0 159.9" stroke="#1a2a52" stroke-width="5.1" fill="none" stroke-linecap="round" opacity="0.62"/>
  <path d="M46.3 33.9 C46.3 -12.3 92.6 -14.9 102.9 18.5 C110.6 -12.3 151.7 -4.6 144.0 36.5 C128.6 18.5 113.1 31.4 104.1 44.2 C92.6 23.7 66.9 23.7 59.1 44.2 C54.0 33.9 48.9 31.4 46.3 33.9 Z" fill="url(#f180mane)"/>
  </g>
</svg>
