<svg width="16" height="16" viewBox="0 0 16 16" xmlns="http://www.w3.org/2000/svg">

  <defs>
    <radialGradient id="f16body" cx="42%" cy="32%" r="74%">
      <stop offset="0%" stop-color="#cdd8ff"/>
      <stop offset="68%" stop-color="#97a8ff"/>
      <stop offset="100%" stop-color="#5f71d6"/>
    </radialGradient>
    <linearGradient id="f16mane" x1="0" y1="0" x2="1" y2="1">
      <stop offset="0%" stop-color="#6a8bff"/>
      <stop offset="50%" stop-color="#4ac8ff"/>
      <stop offset="100%" stop-color="#9d6bff"/>
    </linearGradient>
    <linearGradient id="f16brand" x1="0" y1="0" x2="1" y2="1">
      <stop offset="0%" stop-color="#1f6bff"/>
      <stop offset="100%" stop-color="#0b3db0"/>
    </linearGradient>
  </defs>
  <rect width="16" height="16" rx="3.5" fill="url(#f16brand)"/>
  <g transform="translate(8.0,8.0) scale(0.78) translate(-8.0,-8.0)">
  <path d="M8.0 4.2 L7.0 0.7 L8.0 -1.1 L9.0 0.7 Z" fill="#eaf1ff" stroke="#aebbe8" stroke-width="0.2"/>
  <path d="M3.2 4.4 L2.1 1.0 L5.5 3.0 Z" fill="#97a8ff"/>
  <path d="M12.8 4.4 L13.9 1.0 L10.5 3.0 Z" fill="#97a8ff"/>
  <ellipse cx="8.0" cy="9.4" rx="7.5" ry="7.1" fill="url(#f16body)"/>
  <ellipse cx="8.0" cy="12.8" rx="4.3" ry="3.0" fill="#ffffff" opacity="0.18"/>
  <ellipse cx="3.4" cy="11.9" rx="1.4" ry="0.9" fill="#ff9bb0" opacity="0.5"/>
  <ellipse cx="12.6" cy="11.9" rx="1.4" ry="0.9" fill="#ff9bb0" opacity="0.5"/>
  <ellipse cx="5.5" cy="9.2" rx="1.8" ry="2.4" fill="#fff"/>
  <circle cx="5.5" cy="9.6" r="1.1" fill="#1a2a52"/>
  <circle cx="4.9" cy="8.8" r="0.4" fill="#fff"/>
  <ellipse cx="10.5" cy="9.2" rx="1.8" ry="2.4" fill="#fff"/>
  <circle cx="10.5" cy="9.6" r="1.1" fill="#1a2a52"/>
  <circle cx="9.9" cy="8.8" r="0.4" fill="#fff"/>
  <path d="M6.4 14.2 Q8.0 15.6 9.6 14.2" stroke="#1a2a52" stroke-width="0.5" fill="none" stroke-linecap="round" opacity="0.62"/>
  <path d="M4.1 3.0 C4.1 -1.1 8.2 -1.3 9.1 1.6 C9.8 -1.1 13.5 -0.4 12.8 3.2 C11.4 1.6 10.1 2.8 9.3 3.9 C8.2 2.1 5.9 2.1 5.3 3.9 C4.8 3.0 4.3 2.8 4.1 3.0 Z" fill="url(#f16mane)"/>
  </g>
</svg>
