<svg width="48" height="48" viewBox="0 0 48 48" xmlns="http://www.w3.org/2000/svg">

  <defs>
    <radialGradient id="f48body" cx="42%" cy="32%" r="74%">
      <stop offset="0%" stop-color="#cdd8ff"/>
      <stop offset="68%" stop-color="#97a8ff"/>
      <stop offset="100%" stop-color="#5f71d6"/>
    </radialGradient>
    <linearGradient id="f48mane" x1="0" y1="0" x2="1" y2="1">
      <stop offset="0%" stop-color="#6a8bff"/>
      <stop offset="50%" stop-color="#4ac8ff"/>
      <stop offset="100%" stop-color="#9d6bff"/>
    </linearGradient>
    <linearGradient id="f48brand" x1="0" y1="0" x2="1" y2="1">
      <stop offset="0%" stop-color="#1f6bff"/>
      <stop offset="100%" stop-color="#0b3db0"/>
    </linearGradient>
  </defs>
  <rect width="48" height="48" rx="10.6" fill="url(#f48brand)"/>
  <g transform="translate(24.0,24.0) scale(0.78) translate(-24.0,-24.0)">
  <path d="M24.0 12.5 L20.9 2.2 L24.0 -3.3 L27.1 2.2 Z" fill="#eaf1ff" stroke="#aebbe8" stroke-width="0.7"/>
  <path d="M9.6 13.2 L6.2 2.9 L16.5 9.1 Z" fill="#97a8ff"/>
  <path d="M38.4 13.2 L41.8 2.9 L31.5 9.1 Z" fill="#97a8ff"/>
  <ellipse cx="24.0" cy="28.3" rx="22.6" ry="21.3" fill="url(#f48body)"/>
  <ellipse cx="24.0" cy="38.5" rx="13.0" ry="8.9" fill="#ffffff" opacity="0.18"/>
  <ellipse cx="10.3" cy="35.8" rx="4.1" ry="2.7" fill="#ff9bb0" opacity="0.5"/>
  <ellipse cx="37.7" cy="35.8" rx="4.1" ry="2.7" fill="#ff9bb0" opacity="0.5"/>
  <ellipse cx="16.5" cy="27.6" rx="5.5" ry="7.2" fill="#fff"/>
  <circle cx="16.5" cy="28.9" r="3.3" fill="#1a2a52"/>
  <circle cx="14.7" cy="26.5" r="1.2" fill="#fff"/>
  <ellipse cx="31.5" cy="27.6" rx="5.5" ry="7.2" fill="#fff"/>
  <circle cx="31.5" cy="28.9" r="3.3" fill="#1a2a52"/>
  <circle cx="29.8" cy="26.5" r="1.2" fill="#fff"/>
  <path d="M19.2 42.7 Q24.0 46.8 28.8 42.7" stroke="#1a2a52" stroke-width="1.4" fill="none" stroke-linecap="round" opacity="0.62"/>
  <path d="M12.3 9.1 C12.3 -3.3 24.7 -4.0 27.4 4.9 C29.5 -3.3 40.5 -1.2 38.4 9.7 C34.3 4.9 30.2 8.4 27.8 11.8 C24.7 6.3 17.8 6.3 15.8 11.8 C14.4 9.1 13.0 8.4 12.3 9.1 Z" fill="url(#f48mane)"/>
  </g>
</svg>
