<svg width="128" height="128" viewBox="0 0 128 128" xmlns="http://www.w3.org/2000/svg">

  <defs>
    <radialGradient id="fvbody" cx="42%" cy="32%" r="74%">
      <stop offset="0%" stop-color="#cdd8ff"/>
      <stop offset="68%" stop-color="#97a8ff"/>
      <stop offset="100%" stop-color="#5f71d6"/>
    </radialGradient>
    <linearGradient id="fvmane" x1="0" y1="0" x2="1" y2="1">
      <stop offset="0%" stop-color="#6a8bff"/>
      <stop offset="50%" stop-color="#4ac8ff"/>
      <stop offset="100%" stop-color="#9d6bff"/>
    </linearGradient>
    <linearGradient id="fvbrand" x1="0" y1="0" x2="1" y2="1">
      <stop offset="0%" stop-color="#1f6bff"/>
      <stop offset="100%" stop-color="#0b3db0"/>
    </linearGradient>
  </defs>
  <path d="M64.0 33.3 L55.8 5.9 L64.0 -8.8 L72.2 5.9 Z" fill="#eaf1ff" stroke="#aebbe8" stroke-width="1.8"/>
  <path d="M25.6 35.1 L16.5 7.7 L43.9 24.1 Z" fill="#97a8ff"/>
  <path d="M102.4 35.1 L111.5 7.7 L84.1 24.1 Z" fill="#97a8ff"/>
  <ellipse cx="64.0" cy="75.3" rx="60.3" ry="56.7" fill="url(#fvbody)"/>
  <ellipse cx="64.0" cy="102.8" rx="34.7" ry="23.8" fill="#ffffff" opacity="0.18"/>
  <ellipse cx="27.4" cy="95.5" rx="11.0" ry="7.3" fill="#ff9bb0" opacity="0.5"/>
  <ellipse cx="100.6" cy="95.5" rx="11.0" ry="7.3" fill="#ff9bb0" opacity="0.5"/>
  <ellipse cx="43.9" cy="73.5" rx="14.6" ry="19.2" fill="#fff"/>
  <circle cx="43.9" cy="77.2" r="8.7" fill="#1a2a52"/>
  <circle cx="39.3" cy="70.8" r="3.1" fill="#fff"/>
  <ellipse cx="84.1" cy="73.5" rx="14.6" ry="19.2" fill="#fff"/>
  <circle cx="84.1" cy="77.2" r="8.7" fill="#1a2a52"/>
  <circle cx="79.5" cy="70.8" r="3.1" fill="#fff"/>
  <path d="M51.2 113.7 Q64.0 124.7 76.8 113.7" stroke="#1a2a52" stroke-width="3.7" fill="none" stroke-linecap="round" opacity="0.62"/>
  <path d="M32.9 24.1 C32.9 -8.8 65.8 -10.6 73.1 13.2 C78.6 -8.8 107.9 -3.3 102.4 26.0 C91.4 13.2 80.5 22.3 74.1 31.5 C65.8 16.8 47.5 16.8 42.1 31.5 C38.4 24.1 34.7 22.3 32.9 24.1 Z" fill="url(#fvmane)"/>
</svg>
