<svg width="512" height="512" viewBox="0 0 512 512" xmlns="http://www.w3.org/2000/svg">

  <defs>
    <radialGradient id="f512body" cx="42%" cy="32%" r="74%">
      <stop offset="0%" stop-color="#cdd8ff"/>
      <stop offset="68%" stop-color="#97a8ff"/>
      <stop offset="100%" stop-color="#5f71d6"/>
    </radialGradient>
    <linearGradient id="f512mane" x1="0" y1="0" x2="1" y2="1">
      <stop offset="0%" stop-color="#6a8bff"/>
      <stop offset="50%" stop-color="#4ac8ff"/>
      <stop offset="100%" stop-color="#9d6bff"/>
    </linearGradient>
    <linearGradient id="f512brand" x1="0" y1="0" x2="1" y2="1">
      <stop offset="0%" stop-color="#1f6bff"/>
      <stop offset="100%" stop-color="#0b3db0"/>
    </linearGradient>
  </defs>
  <rect width="512" height="512" rx="112.6" fill="url(#f512brand)"/>
  <g transform="translate(256.0,256.0) scale(0.78) translate(-256.0,-256.0)">
  <path d="M256.0 133.1 L223.1 23.4 L256.0 -35.1 L288.9 23.4 Z" fill="#eaf1ff" stroke="#aebbe8" stroke-width="7.3"/>
  <path d="M102.4 140.4 L65.8 30.7 L175.5 96.5 Z" fill="#97a8ff"/>
  <path d="M409.6 140.4 L446.2 30.7 L336.5 96.5 Z" fill="#97a8ff"/>
  <ellipse cx="256.0" cy="301.3" rx="241.4" ry="226.7" fill="url(#f512body)"/>
  <ellipse cx="256.0" cy="411.1" rx="139.0" ry="95.1" fill="#ffffff" opacity="0.18"/>
  <ellipse cx="109.7" cy="381.8" rx="43.9" ry="29.3" fill="#ff9bb0" opacity="0.5"/>
  <ellipse cx="402.3" cy="381.8" rx="43.9" ry="29.3" fill="#ff9bb0" opacity="0.5"/>
  <ellipse cx="175.5" cy="294.0" rx="58.5" ry="76.8" fill="#fff"/>
  <circle cx="175.5" cy="308.7" r="34.7" fill="#1a2a52"/>
  <circle cx="157.3" cy="283.1" r="12.4" fill="#fff"/>
  <ellipse cx="336.5" cy="294.0" rx="58.5" ry="76.8" fill="#fff"/>
  <circle cx="336.5" cy="308.7" r="34.7" fill="#1a2a52"/>
  <circle cx="318.2" cy="283.1" r="12.4" fill="#fff"/>
  <path d="M204.8 454.9 Q256.0 498.8 307.2 454.9" stroke="#1a2a52" stroke-width="14.6" fill="none" stroke-linecap="round" opacity="0.62"/>
  <path d="M131.7 96.5 C131.7 -35.1 263.3 -42.4 292.6 52.7 C314.5 -35.1 431.5 -13.2 409.6 103.9 C365.7 52.7 321.8 89.2 296.2 125.8 C263.3 67.3 190.2 67.3 168.2 125.8 C153.6 96.5 139.0 89.2 131.7 96.5 Z" fill="url(#f512mane)"/>
  </g>
</svg>
